<svg viewBox="0 0 285 306"
	xmlns="http://www.w3.org/2000/svg">
	<g clip-path="url(#clip0_28_108)">
		<path d="M241.67 128.24C215.83 125.93 190.16 123.64 164.23 121.32C165.34 116.06 165.28 110.82 161.23 106.9C159.02 104.76 156.05 102.65 153.14 102.15C143.89 100.56 136.16 105.33 135.32 116.73C130.39 115.44 125.45 114.37 120.66 112.84C114.44 110.86 112.44 104.69 116.73 99.74C119.05 97.06 119.6 94.48 119.53 91.27C119.43 86.36 120.03 85.59 124.85 85.96C132.5 86.55 139.55 84.32 146.43 81.64C158.72 76.86 171.52 76.14 184.36 77.07C194.65 77.82 205.17 78.74 214.41 84.11C219.78 87.23 225.16 90.54 229.83 94.58C234.3 98.44 239.37 99.18 244.74 100.01C257.71 102.03 270.29 105.22 281.16 113.18C283.05 114.56 283.48 115.82 282.97 118.14C282.43 120.59 282.31 123.33 282.81 125.78C283.57 129.46 282.42 131.43 278.67 131.46C277.51 131.46 276.35 131.41 275.19 131.42C272.41 131.44 270.45 131.3 271.6 127.33C272.89 122.86 268.91 115.74 264.5 113.29C259.52 110.52 251.99 111.06 248.19 114.46C243.42 118.73 243.13 119.31 241.67 128.27V128.24ZM189.69 94.56C189.32 89.72 189.01 85.54 188.69 81.33C180.81 79.56 173.21 80.11 165.68 81.16C162.6 81.59 159.56 82.91 156.76 84.33C155.84 84.79 155.3 86.86 155.39 88.14C155.44 88.92 156.95 90.06 157.94 90.23C164.26 91.29 170.6 92.17 176.95 93.03C180.91 93.57 184.88 93.98 189.7 94.55L189.69 94.56ZM228.62 99.77C228.75 99.48 228.88 99.18 229.01 98.89C227.52 97.69 225.99 96.55 224.55 95.29C216.33 88.05 206.77 83.8 195.99 82.09C194.3 81.82 193.49 81.86 193.82 83.75C194.4 87.12 194.93 90.5 195.74 93.82C195.93 94.59 197.06 95.51 197.9 95.68C200.69 96.25 203.53 96.53 206.36 96.9C213.78 97.86 221.2 98.82 228.62 99.77Z" fill="currentColor"></path>
		<path d="M89.8196 152.24V146.56H167.59V142.47H89.9796V82.05H101.57C103.18 90.82 104.83 99.72 106.44 108.64C107.62 115.2 108.82 121.75 109.86 128.33C110.3 131.11 112.11 131 114.16 131C139.5 130.98 164.85 131.36 190.19 130.86C203.54 130.59 216.31 133.26 229.2 135.76C246.15 139.06 263.11 142.36 280.06 145.67C281.51 145.95 282.93 146.38 284.55 146.79V152.44H206.08C205.41 146.06 202.43 141.22 196.89 138.27C186.41 132.7 174.21 138.56 172.05 150.25C171.63 152.56 171.07 152.84 168.74 152.7C163.68 152.41 158.57 152.91 153.48 152.93C134.53 152.97 115.58 152.97 96.6296 152.92C94.3796 152.92 92.1396 152.47 89.8096 152.22L89.8196 152.24Z" fill="currentColor"></path>
		<path d="M254.49 97.86C251.79 97.41 249.06 96.96 245.93 96.44C245.93 95.21 245.93 94.09 245.93 92.96C245.95 74.24 245.89 55.51 246.05 36.79C246.07 33.99 245.12 33.02 242.54 32.44C219.42 27.29 196.31 22.06 173.21 16.76C165.29 14.94 157.35 13.17 149.58 10.82C144.07 9.15 138.96 10.46 133.83 11.72C105.49 18.63 77.2002 25.74 48.8502 32.62C46.2402 33.25 45.5702 34.3 45.5902 36.8C45.7002 52.62 45.5502 68.43 45.7402 84.25C45.7902 88.6 45.0802 92.2 41.2202 94.75C39.7902 95.7 38.6402 97.07 36.9102 98.65C36.5702 94.64 36.0102 91.06 35.9902 87.48C35.9002 68.18 35.9902 48.87 35.8802 29.57C35.8602 26.93 36.7802 25.93 39.2302 25.33C69.3402 18.04 99.4302 10.67 129.52 3.29C132.78 2.49001 136.08 1.76 139.25 0.670005C144.69 -1.21 149.61 1.28001 154.58 2.43001C187.19 9.98001 219.76 17.73 252.31 25.53C253.36 25.78 254.85 27.38 254.86 28.35C254.99 51.26 254.94 74.17 254.92 97.07C254.92 97.17 254.81 97.27 254.46 97.84L254.49 97.86Z" fill="currentColor"></path>
		<path d="M10.2699 152.47C8.11993 151.68 6.05993 151.21 4.28993 150.22C1.70993 148.77 -0.280072 146.81 0.0299279 143.33C0.379928 139.42 0.429928 135.49 0.549928 131.56C0.809928 122.72 6.60993 118.62 13.9699 116C18.4099 114.42 23.1799 113.62 27.4399 111.68C30.9099 110.1 34.0699 107.6 36.9599 105.05C43.6399 99.15 49.9799 92.86 56.6399 86.94C60.4299 83.56 64.8699 81.49 70.2099 81.72C74.7099 81.91 79.2199 81.76 83.9599 81.76V142.26H48.7899C48.6799 143.68 48.5899 144.76 48.4699 146.31H83.6599C84.8599 152.46 84.4499 152.96 78.6899 152.96C70.5499 152.96 62.4099 153.02 54.2799 152.93C51.1899 152.89 48.0999 152.49 45.0799 152.26C42.9599 141.27 35.6599 136.56 28.4399 136.22C19.3199 135.79 13.6899 140.8 10.2699 152.47ZM42.6399 105.44L43.7899 106.02C44.2799 108.6 44.9399 111.17 45.1999 113.77C45.3999 115.79 45.7199 116.54 48.1099 116.13C56.1599 114.77 64.2999 113.88 72.3499 112.54C74.8599 112.12 77.3799 110.95 77.4199 107.7C77.4799 102.94 77.6399 98.16 77.2999 93.42C77.1999 92.05 75.6199 89.76 74.5599 89.66C68.7799 89.14 62.6499 87.88 57.6199 92.09C52.4899 96.38 47.6199 100.97 42.6399 105.43V105.44ZM17.6399 122.13C5.17993 122.8 4.73993 123.07 4.51993 130.42C11.2599 131.57 16.5399 128.23 17.6399 122.13Z" fill="currentColor"></path>
		<path d="M152.07 19.72C155.12 19.72 158.31 19.15 161.21 19.81C186.08 25.48 210.88 31.43 235.75 37.12C238.98 37.86 239.89 39.16 239.85 42.42C239.67 58.33 239.79 74.25 239.79 90.16C239.79 91.17 239.7 92.19 239.64 93.44C236.99 92.37 236.11 90.69 236.13 88.04C236.23 73.52 236.13 59 236.2 44.48C236.21 42.02 235.62 41.05 232.88 40.42C206.58 34.38 180.33 28.08 154.07 21.84C153.42 21.69 152.8 21.44 152.16 21.24L152.05 19.72H152.07Z" fill="currentColor"></path>
		<path d="M55.4401 40.98C55.4401 49.2 55.5001 57.2 55.4201 65.21C55.3701 70.54 55.2301 75.87 54.8901 81.18C54.8201 82.35 53.7401 83.45 53.1301 84.58C52.8401 84.46 52.5501 84.34 52.2501 84.22C51.9401 80.83 51.4001 77.44 51.3601 74.05C51.2401 63.12 51.3601 52.2 51.2701 41.27C51.2501 39.1 51.7201 38.04 54.1101 37.47C71.8601 33.25 89.5101 28.63 107.3 24.61C112.31 23.48 117.66 23.9 122.86 23.6C122.9 23.89 122.95 24.17 122.99 24.46C100.63 29.93 78.2801 35.39 55.4401 40.98Z" fill="currentColor"></path>
		<path d="M150.76 52.09C150.76 48.37 150.65 44.65 150.79 40.94C150.97 36.2 153.35 33.52 157.24 33.37C160.81 33.22 163.77 35.78 163.97 40.3C164.32 48.29 164.38 56.32 164.03 64.31C163.82 68.91 160.85 71.28 157.15 71C153.46 70.73 150.88 67.62 150.75 63.24C150.7 61.38 150.73 59.53 150.73 57.67C150.73 55.81 150.73 53.95 150.73 52.09C150.74 52.09 150.76 52.09 150.77 52.09H150.76ZM159.03 52.09H159.05C159.05 48.26 159.15 44.42 158.98 40.59C158.94 39.7 157.97 38.85 157.43 37.98C156.86 38.81 155.8 39.62 155.79 40.46C155.68 48.24 155.69 56.03 155.83 63.81C155.85 64.63 156.92 65.44 157.5 66.25C158.01 65.36 158.93 64.49 158.97 63.58C159.14 59.75 159.04 55.92 159.04 52.08L159.03 52.09Z" fill="currentColor"></path>
		<path d="M176.82 153.12C176.81 146.75 182.38 141.09 188.7 141.05C195.55 141 201 146.43 200.98 153.28C200.96 160.13 195.65 165.12 188.41 165.11C181.84 165.1 176.84 159.93 176.82 153.13V153.12ZM188.9 159.72C192.38 159.72 195.71 156.45 195.59 153.14C195.47 149.78 192.15 146.49 188.87 146.48C185.78 146.48 182.3 149.84 182.24 152.89C182.16 156.74 185.07 159.72 188.91 159.72H188.9Z" fill="currentColor"></path>
		<path d="M39.7495 153.01C39.6995 160.46 34.6995 165.14 26.8695 165.06C20.7195 165 15.6295 159.64 15.6495 153.23C15.6595 146.41 21.1995 140.97 28.0195 141.07C34.2895 141.16 39.7895 146.76 39.7495 153.01ZM34.3495 153.06C34.3995 149.92 31.2095 146.61 27.9595 146.43C24.8195 146.26 21.1095 149.73 21.0195 152.92C20.9195 156.61 23.9395 159.63 27.8195 159.72C31.4695 159.8 34.2895 156.92 34.3495 153.06Z" fill="currentColor"></path>
		<path d="M138.39 33.43H147.93V37.51C146.68 37.65 145.24 37.81 143.56 37.99V48.76C144.9 48.89 146.13 49.01 147.74 49.16C147.8 50.48 147.86 51.78 147.92 53.12C146.27 53.39 144.92 53.61 143.49 53.84V66.26C145.1 66.39 146.56 66.5 148.32 66.64V70.78H138.39V33.43Z" fill="currentColor"></path>
		<path d="M246.23 126.03C246.2 120.33 251.3 115.3 257.13 115.28C262.87 115.27 267.69 120.08 267.72 125.85C267.75 132.05 263.21 136.83 257.27 136.84C251 136.85 246.26 132.21 246.23 126.02V126.03ZM257.14 119.43C253.36 119.38 250.42 122.14 250.37 125.78C250.32 129.94 252.88 132.7 256.84 132.75C260.84 132.8 263.59 130.09 263.6 126.09C263.6 122.3 260.87 119.48 257.14 119.43Z" fill="currentColor"></path>
		<path d="M139.12 116.23C139.14 110.77 144.55 105.34 150.13 105.41C155.27 105.47 160.74 109.24 161.09 116.12C161.39 121.91 155.7 127.49 149.91 127.4C144.19 127.32 139.1 122.04 139.13 116.23H139.12ZM149.97 123.34C153.41 123.38 157.03 119.72 157.09 116.13C157.14 113 153.67 109.59 150.28 109.45C146.6 109.3 143.14 112.66 143.11 116.42C143.08 119.89 146.45 123.29 149.97 123.33V123.34Z" fill="currentColor"></path>
		<path d="M126.79 38.06C125.14 37.81 124.14 37.66 122.99 37.49C122.93 36.23 122.87 35.1 122.79 33.62H135.85V37.63C134.54 37.71 133.41 37.78 131.93 37.87V70.75H126.79V38.07V38.06Z" fill="currentColor"></path>
		<path d="M83.36 76.01C82.48 76.1 81.8 76.23 81.12 76.23C77.89 76.25 74.66 76.23 71.21 76.23C71.36 73.39 72.16 71.69 75.34 71.59C82.47 71.37 82.48 71.28 83.36 76V76.01Z" fill="currentColor"></path>
		<path d="M19.9397 236.11H46.1297C46.1297 237.46 46.1297 238.65 46.1297 239.83C46.1297 250.7 46.2497 261.57 46.0597 272.44C46.0097 275.18 47.1797 276.07 49.9597 276.66C80.2197 283.13 110.45 289.72 140.71 296.19C142.65 296.6 144.89 296.58 146.84 296.19C178.52 289.71 210.17 283.1 241.86 276.63C244.77 276.04 245.76 275.04 245.73 272.36C245.6 261.39 245.75 250.42 245.8 239.44C245.8 238.44 245.8 237.44 245.8 236.24H272.3C270.88 236.97 270.13 237.47 269.29 237.78C265.87 239.05 262.52 240.54 258.97 241.41C255.52 242.26 255 244.04 255.05 246.83C255.24 257.7 255.1 268.57 255.27 279.44C255.31 281.75 254.39 282.67 251.94 283.17C216.4 290.46 180.88 297.82 145.35 305.13C144.27 305.35 143.04 305.43 141.99 305.21C108.12 297.94 74.2797 290.58 40.3897 283.39C37.0997 282.69 36.2697 281.48 36.3197 278.62C36.5097 267.55 36.3397 256.47 36.3997 245.4C36.4097 243.61 35.7897 242.59 33.8497 241.95C29.7297 240.6 25.6797 239.09 21.6097 237.61C20.9297 237.36 20.3197 236.96 19.6797 236.63C19.7697 236.46 19.8597 236.29 19.9497 236.11H19.9397Z" fill="currentColor"></path>
		<path d="M143.76 257.09C142.33 258.79 140.38 259.54 142.6 261.43C142.99 261.76 141.84 264.36 140.96 265.59C139.19 268.07 137.77 270.37 138.65 273.73C138.96 274.89 137.54 276.51 136.92 277.92C136.42 279.06 135.67 280.18 135.53 281.37C135.2 284.12 135.16 286.9 134.99 289.98C125.73 287.72 117.21 285.65 108.69 283.55C90.9899 279.19 73.2999 274.8 55.6099 270.44C53.8199 270 52.9699 269.12 52.9899 267.11C53.0699 255.68 53.1199 251.32 52.9899 239.89C52.9599 237.1 53.9699 236.53 55.9899 236.53C73.8399 236.57 92.4499 236.53 110.31 236.53C152.08 236.53 192.94 236.61 234.71 236.53C237.47 236.53 239.07 237.33 238.99 240.26C238.7 251.33 238.68 255.75 238.64 266.83C238.64 269.17 237.7 270.02 235.68 270.5C224.25 273.2 212.83 275.98 201.4 278.67C186.53 282.18 171.64 285.62 156.76 289.13C152.79 290.07 152.61 290.01 152.47 286.06C152.36 283.01 152.54 279.89 149.67 277.71C149.25 277.4 149.1 276.42 149.19 275.81C149.8 271.45 148.22 267.86 145.65 264.46C144.93 263.5 145 261.95 144.68 260.67C144.43 259.65 144.15 258.64 143.74 257.07L143.76 257.09Z" fill="currentColor"></path>
		<path d="M39.4295 172.09L34.4595 228.11H22.9995L18.0195 172.09H25.9095L28.7195 211.23L31.5095 172.09H39.4295Z" fill="currentColor"></path>
		<path d="M42.0898 172.09H50.1998V219.12C50.1998 220.24 50.6498 220.8 51.5598 220.8C52.4698 220.8 52.8998 220.24 52.8998 219.12V172.09H61.0098V218.46C61.0098 221.69 60.1298 224.19 58.3598 225.96C56.5898 227.73 54.3298 228.62 51.5698 228.62C49.0098 228.62 46.7998 227.83 44.9198 226.24C43.0398 224.65 42.0998 222.09 42.0998 218.54V172.09H42.0898Z" fill="currentColor"></path>
		<path d="M82.1194 191.66H74.7594V180.57C74.7594 179.66 74.3894 179.2 73.6394 179.2C72.8894 179.2 72.4694 179.66 72.4694 180.57V219.44C72.4694 220.35 72.8594 220.81 73.6394 220.81C74.4194 220.81 74.7594 220.35 74.7594 219.44V205.61H82.1194V219.83C82.1194 222.49 81.2594 224.62 79.5494 226.22C77.8394 227.82 75.8994 228.62 73.7294 228.62C67.4794 228.62 64.3594 225.26 64.3594 218.54V182.49C64.3594 175.22 67.4794 171.59 73.7294 171.59C79.3194 171.59 82.1194 174.9 82.1194 181.51V191.67V191.66ZM81.1694 160.25L77.1294 169.55H70.2594L66.2194 160.25H71.4194L73.6794 165.45L75.9394 160.25H81.1594H81.1694Z" fill="currentColor"></path>
		<path d="M106.149 228.11H97.8093L92.2993 198.27V228.11H85.5293V172.09H94.7393L99.3693 197.64V172.09H106.139V228.11H106.149Z" fill="currentColor"></path>
		<path d="M131.449 228.11H123.419L122.049 213.07H118.449L117.069 228.11H109.039L115.099 172.09H125.379L131.449 228.11ZM121.399 205.3L120.229 188.58L119.129 205.3H121.399Z" fill="currentColor"></path>
		<path d="M145.38 205.69H152.74V218.54C152.74 219.82 153.25 220.45 154.27 220.45C155.29 220.45 155.75 219.81 155.75 218.54V211.9C155.75 209.87 154.86 207.49 153.07 204.75C149.62 199.67 147.48 196.26 146.64 194.52C145.8 192.78 145.38 190.86 145.38 188.78V182.49C145.38 175.22 148.51 171.59 154.76 171.59C160.36 171.59 163.16 174.9 163.16 181.51V191.2H155.8V180.89C155.8 179.77 155.39 179.21 154.57 179.21C153.61 179.21 153.13 180.29 153.13 182.45L153.29 186.08C153.29 188.16 154.2 190.59 156.02 193.35C159.41 198.27 161.56 201.71 162.48 203.66C163.4 205.61 163.86 207.83 163.86 210.3V217.45C163.86 224.9 160.73 228.62 154.45 228.62C148.17 228.62 145.38 225.24 145.38 218.46V205.69Z" fill="currentColor"></path>
		<path d="M182.499 228.11H167.289V172.09H175.399V220.92H182.499V228.11Z" fill="currentColor"></path>
		<path d="M185.34 172.09H193.45V219.12C193.45 220.24 193.91 220.8 194.81 220.8C195.71 220.8 196.15 220.24 196.15 219.12V172.09H204.26V218.46C204.26 221.69 203.38 224.19 201.61 225.96C199.84 227.73 197.58 228.62 194.82 228.62C192.26 228.62 190.05 227.83 188.17 226.24C186.29 224.65 185.35 222.09 185.35 218.54V172.09H185.34Z" fill="currentColor"></path>
		<path d="M225.55 228.11H207.25V221L216.2 179.4H207.79V172.1H224.93V179.48L216.04 220.93H225.55V228.12V228.11ZM224.93 160.26L220.89 169.56H214.02L209.98 160.26H215.18L217.44 165.46L219.7 160.26H224.92H224.93Z" fill="currentColor"></path>
		<path d="M228.57 228.11V172.09H238.12C240.4 172.09 242.38 172.88 244.06 174.45C245.74 176.03 246.58 178.55 246.58 182.01V189.78C246.58 193.71 245 196.49 241.84 198.1C245.17 199.35 246.83 202.05 246.83 206.19V217.05C246.83 220.75 246.04 223.51 244.45 225.35C242.86 227.19 240.97 228.1 238.78 228.1H228.56L228.57 228.11ZM238.94 191.77V182.21C238.94 180.25 238.19 179.27 236.68 179.27V194.74C238.19 194.74 238.94 193.75 238.94 191.76V191.77ZM238.94 217.95V203.77C238.94 201.82 238.19 200.84 236.68 200.84V220.92C238.19 220.92 238.94 219.93 238.94 217.95Z" fill="currentColor"></path>
		<path d="M272.13 228.11H264.1L262.73 213.07H259.13L257.75 228.11H249.72L255.78 172.09H266.06L272.13 228.11ZM262.08 205.3L260.91 188.58L259.81 205.3H262.08Z" fill="currentColor"></path>
	</g>
	<defs>
		<clipPath id="clip0_28_108">
			<rect fill="transparent" height="305.34" width="284.55"></rect>
		</clipPath>
	</defs>
    <style>
        path { fill: #f7b50c; }
        @media (prefers-color-scheme: dark) {
            path { fill: #f7b50c; }
			rect { fill: #000 }
        }
    </style>
</svg>